REM DIRINDEX 1\2,1\3
REM DIRNAME cjc133,folder01,folder02
TITLE ""
FILE "DISC1Track16.mp3" MP3
  TRACK 01 AUDIO
    TITLE "0:"
    INDEX 01 00:00:00
  TRACK 02 AUDIO
    TITLE "3:cjc133_0692"
    INDEX 01 00:00:13
  TRACK 03 AUDIO
    TITLE "0:"
    INDEX 01 00:01:30
  TRACK 04 AUDIO
    TITLE "2:cjc133_0693"
    INDEX 01 00:02:04
  TRACK 05 AUDIO
    TITLE "2:cjc133_0694"
    INDEX 01 00:04:56
  TRACK 06 AUDIO
    TITLE "2:cjc133_0695"
    INDEX 01 00:07:52
  TRACK 07 AUDIO
    TITLE "0:"
    INDEX 01 00:09:53
  TRACK 08 AUDIO
    TITLE "2:cjc133_0696"
    INDEX 01 00:10:31
  TRACK 09 AUDIO
    TITLE "2:cjc133_0697"
    INDEX 01 00:11:70
  TRACK 10 AUDIO
    TITLE "2:cjc133_0698"
    INDEX 01 00:15:38
  TRACK 11 AUDIO
    TITLE "0:"
    INDEX 01 00:18:15
  TRACK 12 AUDIO
    TITLE "2:cjc133_0699"
    INDEX 01 00:18:70
  TRACK 13 AUDIO
    TITLE "2:cjc133_0700"
    INDEX 01 00:21:17
  TRACK 14 AUDIO
    TITLE "2:cjc133_0701"
    INDEX 01 00:24:61
  TRACK 15 AUDIO
    TITLE "0:"
    INDEX 01 00:27:34
  TRACK 16 AUDIO
    TITLE "2:cjc133_0702"
    INDEX 01 00:28:12
  TRACK 17 AUDIO
    TITLE "2:cjc133_0703"
    INDEX 01 00:30:48
  TRACK 18 AUDIO
    TITLE "2:cjc133_0704"
    INDEX 01 00:33:66
  TRACK 19 AUDIO
    TITLE "0:"
    INDEX 01 00:36:15
  TRACK 20 AUDIO
    TITLE "2:cjc133_0705"
    INDEX 01 00:36:62
  TRACK 21 AUDIO
    TITLE "2:cjc133_0706"
    INDEX 01 00:39:05
  TRACK 22 AUDIO
    TITLE "2:cjc133_0707"
    INDEX 01 00:42:08
  TRACK 23 AUDIO
    TITLE "0:"
    INDEX 01 00:44:30
  TRACK 24 AUDIO
    TITLE "2:cjc133_0708"
    INDEX 01 00:45:02
  TRACK 25 AUDIO
    TITLE "2:cjc133_0709"
    INDEX 01 00:46:72
  TRACK 26 AUDIO
    TITLE "2:cjc133_0710"
    INDEX 01 00:50:07
  TRACK 27 AUDIO
    TITLE "0:"
    INDEX 01 00:52:24
  TRACK 28 AUDIO
    TITLE "2:cjc133_0711"
    INDEX 01 00:52:67
  TRACK 29 AUDIO
    TITLE "2:cjc133_0712"
    INDEX 01 00:55:65
  TRACK 30 AUDIO
    TITLE "2:cjc133_0713"
    INDEX 01 00:59:30
  TRACK 31 AUDIO
    TITLE "0:"
    INDEX 01 01:01:74
  TRACK 32 AUDIO
    TITLE "2:cjc133_0714"
    INDEX 01 01:02:54
  TRACK 33 AUDIO
    TITLE "2:cjc133_0715"
    INDEX 01 01:03:47
  TRACK 34 AUDIO
    TITLE "2:cjc133_0716"
    INDEX 01 01:07:06
  TRACK 35 AUDIO
    TITLE "0:"
    INDEX 01 01:09:42
  TRACK 36 AUDIO
    TITLE "2:cjc133_0717"
    INDEX 01 01:10:22
  TRACK 37 AUDIO
    TITLE "2:cjc133_0718"
    INDEX 01 01:13:47
  TRACK 38 AUDIO
    TITLE "2:cjc133_0719"
    INDEX 01 01:16:32
  TRACK 39 AUDIO
    TITLE "0:"
    INDEX 01 01:18:21
  TRACK 40 AUDIO
    TITLE "2:cjc133_0720"
    INDEX 01 01:18:74
  TRACK 41 AUDIO
    TITLE "2:cjc133_0721"
    INDEX 01 01:19:68
  TRACK 42 AUDIO
    TITLE "2:cjc133_0722"
    INDEX 01 01:22:54
  TRACK 43 AUDIO
    TITLE "0:"
    INDEX 01 01:24:49
  TRACK 44 AUDIO
    TITLE "2:cjc133_0723"
    INDEX 01 01:25:23
  TRACK 45 AUDIO
    TITLE "2:cjc133_0724"
    INDEX 01 01:26:68
  TRACK 46 AUDIO
    TITLE "2:cjc133_0725"
    INDEX 01 01:29:46
  TRACK 47 AUDIO
    TITLE "0:"
    INDEX 01 01:31:24
  TRACK 48 AUDIO
    TITLE "2:cjc133_0726"
    INDEX 01 01:32:04
  TRACK 49 AUDIO
    TITLE "2:cjc133_0727"
    INDEX 01 01:33:09
  TRACK 50 AUDIO
    TITLE "2:cjc133_0728"
    INDEX 01 01:35:61
  TRACK 51 AUDIO
    TITLE "0:"
    INDEX 01 01:37:44
  TRACK 52 AUDIO
    TITLE "2:cjc133_0729"
    INDEX 01 01:38:22
  TRACK 53 AUDIO
    TITLE "2:cjc133_0730"
    INDEX 01 01:41:22
  TRACK 54 AUDIO
    TITLE "2:cjc133_0731"
    INDEX 01 01:44:38
  TRACK 55 AUDIO
    TITLE "0:"
    INDEX 01 01:46:57
  TRACK 56 AUDIO
    TITLE "2:cjc133_0732"
    INDEX 01 01:47:37
  TRACK 57 AUDIO
    TITLE "2:cjc133_0733"
    INDEX 01 01:49:65
  TRACK 58 AUDIO
    TITLE "2:cjc133_0734"
    INDEX 01 01:53:29
  TRACK 59 AUDIO
    TITLE "0:"
    INDEX 01 01:55:69
  TRACK 60 AUDIO
    TITLE "2:cjc133_0735"
    INDEX 01 01:56:49
  TRACK 61 AUDIO
    TITLE "2:cjc133_0736"
    INDEX 01 01:59:44
  TRACK 62 AUDIO
    TITLE "2:cjc133_0737"
    INDEX 01 02:02:69
  TRACK 63 AUDIO
    TITLE "0:"
    INDEX 01 02:05:25
